<mxfile host="app.diagrams.net" modified="2024-03-08T02:08:51.909Z" agent="Mozilla/5.0 (Windows NT 10.0; Win64; x64) AppleWebKit/537.36 (KHTML, like Gecko) Chrome/122.0.0.0 Safari/537.36" etag="mKvEOkKG6ZNFfYgTcUlm" version="24.0.2" type="device">
  <diagram name="페이지-1" id="0Eo-w8bfRpo8jyL1RmIo">
    <mxGraphModel dx="1434" dy="780" grid="1" gridSize="10" guides="1" tooltips="1" connect="1" arrows="1" fold="1" page="1" pageScale="1" pageWidth="827" pageHeight="1169" math="0" shadow="0">
      <root>
        <mxCell id="0" />
        <mxCell id="1" parent="0" />
        <mxCell id="0Lv6bPj40K76_f2PrLLG-1" value="변수 temp 만들기" style="rounded=1;whiteSpace=wrap;html=1;" vertex="1" parent="1">
          <mxGeometry x="150" y="160" width="150" height="70" as="geometry" />
        </mxCell>
        <mxCell id="0Lv6bPj40K76_f2PrLLG-2" value="입력 a, b" style="shape=parallelogram;perimeter=parallelogramPerimeter;whiteSpace=wrap;html=1;fixedSize=1;" vertex="1" parent="1">
          <mxGeometry x="150" y="10" width="160" height="60" as="geometry" />
        </mxCell>
        <mxCell id="0Lv6bPj40K76_f2PrLLG-3" value="" style="endArrow=classic;html=1;rounded=0;" edge="1" parent="1">
          <mxGeometry width="50" height="50" relative="1" as="geometry">
            <mxPoint x="219.5" y="70" as="sourcePoint" />
            <mxPoint x="219.5" y="160" as="targetPoint" />
          </mxGeometry>
        </mxCell>
        <mxCell id="0Lv6bPj40K76_f2PrLLG-4" value="" style="endArrow=classic;html=1;rounded=0;" edge="1" parent="1">
          <mxGeometry width="50" height="50" relative="1" as="geometry">
            <mxPoint x="219.5" y="230" as="sourcePoint" />
            <mxPoint x="219.5" y="320" as="targetPoint" />
          </mxGeometry>
        </mxCell>
        <mxCell id="0Lv6bPj40K76_f2PrLLG-5" value="temp = a" style="rounded=1;whiteSpace=wrap;html=1;" vertex="1" parent="1">
          <mxGeometry x="150" y="320" width="150" height="70" as="geometry" />
        </mxCell>
        <mxCell id="0Lv6bPj40K76_f2PrLLG-7" value="" style="endArrow=classic;html=1;rounded=0;" edge="1" parent="1">
          <mxGeometry width="50" height="50" relative="1" as="geometry">
            <mxPoint x="219.5" y="390" as="sourcePoint" />
            <mxPoint x="219.5" y="480" as="targetPoint" />
          </mxGeometry>
        </mxCell>
        <mxCell id="0Lv6bPj40K76_f2PrLLG-8" value="a = b" style="rounded=1;whiteSpace=wrap;html=1;" vertex="1" parent="1">
          <mxGeometry x="150" y="480" width="150" height="70" as="geometry" />
        </mxCell>
        <mxCell id="0Lv6bPj40K76_f2PrLLG-9" value="" style="endArrow=classic;html=1;rounded=0;" edge="1" parent="1">
          <mxGeometry width="50" height="50" relative="1" as="geometry">
            <mxPoint x="219.5" y="550" as="sourcePoint" />
            <mxPoint x="219.5" y="640" as="targetPoint" />
          </mxGeometry>
        </mxCell>
        <mxCell id="0Lv6bPj40K76_f2PrLLG-11" value="b = temp" style="rounded=1;whiteSpace=wrap;html=1;" vertex="1" parent="1">
          <mxGeometry x="145" y="640" width="150" height="70" as="geometry" />
        </mxCell>
        <mxCell id="0Lv6bPj40K76_f2PrLLG-12" value="" style="endArrow=classic;html=1;rounded=0;" edge="1" parent="1">
          <mxGeometry width="50" height="50" relative="1" as="geometry">
            <mxPoint x="219.5" y="710" as="sourcePoint" />
            <mxPoint x="219.5" y="800" as="targetPoint" />
          </mxGeometry>
        </mxCell>
        <mxCell id="0Lv6bPj40K76_f2PrLLG-13" value="출력 a, b" style="shape=parallelogram;perimeter=parallelogramPerimeter;whiteSpace=wrap;html=1;fixedSize=1;" vertex="1" parent="1">
          <mxGeometry x="150" y="800" width="160" height="60" as="geometry" />
        </mxCell>
      </root>
    </mxGraphModel>
  </diagram>
</mxfile>
